<svg width="420" height="64" viewBox="0 0 420 64" fill="none" xmlns="http://www.w3.org/2000/svg">
  <rect x="4" y="10" width="44" height="44" rx="11" fill="#1E3A5F"/>
  <path d="M14 18H24.5C30.1 18 33.7 20.8 33.7 25C33.7 28 31.8 30 28.7 30.8C32.4 31.4 34.8 33.6 34.8 37.2C34.8 41.9 31 45 25 45H14V18ZM23.8 28.9C26.6 28.9 28.3 27.6 28.3 25.3C28.3 23.1 26.6 21.8 23.8 21.8H19V28.9H23.8ZM24.5 41.2C27.6 41.2 29.5 39.8 29.5 37.3C29.5 34.8 27.6 33.5 24.5 33.5H19V41.2H24.5Z" fill="white"/>
  <path d="M36.9 18H42V28.8L52.3 18H58.9L48.1 29.4L59.7 45H52.9L44.3 33.5L42 36V45H36.9V18Z" fill="white"/>
  <path d="M74 20H126" stroke="#1E3A5F" stroke-width="3.5" stroke-linecap="round"/>
  <path d="M74 31.5H143" stroke="#1E3A5F" stroke-width="3.5" stroke-linecap="round"/>
  <path d="M74 43H160" stroke="#1E3A5F" stroke-width="3.5" stroke-linecap="round"/>
  <path d="M162 31.5L178 21V42L162 31.5Z" fill="#4A9FD4"/>
  <text x="190" y="40" font-family="Manrope, Inter, Arial, sans-serif" font-size="28" font-weight="800" fill="#1E3A5F">БК-ТРЕЙД</text>
</svg>
